<?xml version="1.0"?><svg width="640" height="480" xmlns="http://www.w3.org/2000/svg">
 <title>2 octave piano keys</title>
 <g>
  <g id="g840">
   <rect height="255.70679" id="rect826" width="51.717539" x="110.67357" y="169.377649" stroke-width="0.96589556pt" stroke="#000000" fill-rule="evenodd" fill="#000000" transform="matrix(0.43514004579281806,0,0,0.43256746294331555,-8.31462344132787,-64.78026005165039) "/>
   <rect height="255.70679" id="rect828" width="51.717541" x="213.061546" y="169.251089" stroke-width="0.96589556pt" stroke="#000000" fill-rule="evenodd" fill="#000000" transform="matrix(0.43514004579281806,0,0,0.43256746294331555,-8.31462344132787,-64.78026005165039) "/>
   <rect height="255.70679" id="rect829" width="51.717541" x="418.173936" y="168.742129" stroke-width="0.96589556pt" stroke="#000000" fill-rule="evenodd" fill="#000000" transform="matrix(0.43514004579281806,0,0,0.43256746294331555,-8.31462344132787,-64.78026005165039) "/>
   <rect height="255.70679" id="rect830" width="51.717541" x="519.966686" y="169.760059" stroke-width="0.96589556pt" stroke="#000000" fill-rule="evenodd" fill="#000000" transform="matrix(0.43514004579281806,0,0,0.43256746294331555,-8.31462344132787,-64.78026005165039) "/>
   <rect height="255.70679" id="rect831" width="51.717541" x="623.795296" y="169.251099" stroke-width="0.96589556pt" stroke="#000000" fill-rule="evenodd" fill="#000000" transform="matrix(0.43514004579281806,0,0,0.43256746294331555,-8.31462344132787,-64.78026005165039) "/>
   <rect height="449.14487" id="rect832" width="718.34387" x="33.51598" y="167.946329" stroke-width="2.375" stroke="#000000" fill-rule="evenodd" fill-opacity="0.75" fill="none" transform="matrix(0.43514004579281806,0,0,0.43256746294331555,-8.31462344132787,-64.78026005165039) "/>
   <path d="m50.744858,114.679893l0,87.456139" id="path833" stroke-width="2.375" stroke="#000000" fill-rule="evenodd" fill-opacity="0.75" fill="none"/>
   <path d="m95.846611,114.257858l0,87.456146" id="path834" stroke-width="2.375" stroke="#000000" fill-rule="evenodd" fill-opacity="0.75" fill="none"/>
   <path d="m184.962265,114.835564l0,87.456139" id="path835" stroke-width="2.375" stroke="#000000" fill-rule="evenodd" fill-opacity="0.75" fill="none"/>
   <path d="m229.272629,114.835564l0,87.456139" id="path836" stroke-width="2.375" stroke="#000000" fill-rule="evenodd" fill-opacity="0.75" fill="none"/>
   <path d="m274.687592,114.524216l0,87.456131" id="path837" stroke-width="2.375" stroke="#000000" fill-rule="evenodd" fill-opacity="0.75" fill="none"/>
   <path d="m140.350128,8.068835l0,193.883496" id="path839" stroke-width="2.375" stroke="#000000" fill-rule="evenodd" fill-opacity="0.75" fill="none"/>
  </g>
  <rect fill="#000000" stroke="#000000" stroke-width="5" x="42.836659" y="12.567335" width="18.677211" height="103.130685" id="svg_1"/>
  <g id="svg_6">
   <rect id="svg_7" height="255.70679" width="51.717539" x="832.079402" y="167.800694" stroke-width="0.96589556pt" stroke="#000000" fill-rule="evenodd" fill="#000000" transform="matrix(0.43514004579281806,0,0,0.43256746294331555,-8.31462344132787,-64.78026005165039) "/>
   <rect id="svg_8" height="255.70679" width="51.717541" x="934.467378" y="167.674134" stroke-width="0.96589556pt" stroke="#000000" fill-rule="evenodd" fill="#000000" transform="matrix(0.43514004579281806,0,0,0.43256746294331555,-8.31462344132787,-64.78026005165039) "/>
   <rect id="svg_9" height="255.70679" width="51.717541" x="1139.579768" y="167.165174" stroke-width="0.96589556pt" stroke="#000000" fill-rule="evenodd" fill="#000000" transform="matrix(0.43514004579281806,0,0,0.43256746294331555,-8.31462344132787,-64.78026005165039) "/>
   <rect id="svg_10" height="255.70679" width="51.717541" x="1241.372518" y="168.183104" stroke-width="0.96589556pt" stroke="#000000" fill-rule="evenodd" fill="#000000" transform="matrix(0.43514004579281806,0,0,0.43256746294331555,-8.31462344132787,-64.78026005165039) "/>
   <rect id="svg_11" height="255.70679" width="51.717541" x="1345.201128" y="167.674144" stroke-width="0.96589556pt" stroke="#000000" fill-rule="evenodd" fill="#000000" transform="matrix(0.43514004579281806,0,0,0.43256746294331555,-8.31462344132787,-64.78026005165039) "/>
   <rect id="svg_12" height="449.14487" width="718.34387" x="754.921812" y="166.369374" stroke-width="2.375" stroke="#000000" fill-rule="evenodd" fill-opacity="0.75" fill="none" transform="matrix(0.43514004579281806,0,0,0.43256746294331555,-8.31462344132787,-64.78026005165039) "/>
   <path id="svg_13" d="m364.65744,113.997749l0,87.456123" stroke-width="2.375" stroke="#000000" fill-rule="evenodd" fill-opacity="0.75" fill="none"/>
   <path id="svg_14" d="m409.759155,113.575729l0,87.456116" stroke-width="2.375" stroke="#000000" fill-rule="evenodd" fill-opacity="0.75" fill="none"/>
   <path id="svg_15" d="m498.874847,114.153419l0,87.456123" stroke-width="2.375" stroke="#000000" fill-rule="evenodd" fill-opacity="0.75" fill="none"/>
   <path id="svg_16" d="m543.185242,114.153419l0,87.456123" stroke-width="2.375" stroke="#000000" fill-rule="evenodd" fill-opacity="0.75" fill="none"/>
   <path id="svg_17" d="m588.600159,113.842056l0,87.456131" stroke-width="2.375" stroke="#000000" fill-rule="evenodd" fill-opacity="0.75" fill="none"/>
   <path id="svg_18" d="m454.262634,7.386693l0,193.883479" stroke-width="2.375" stroke="#000000" fill-rule="evenodd" fill-opacity="0.75" fill="none"/>
  </g>
  <rect id="svg_19" fill="#000000" stroke="#000000" stroke-width="5" x="87.09224" y="11.349925" width="18.677211" height="103.130685"/>
  <rect id="svg_20" fill="#000000" stroke="#000000" stroke-width="5" x="176.418034" y="11.349925" width="18.677211" height="103.130685"/>
  <rect id="svg_21" fill="#000000" stroke="#000000" stroke-width="5" x="220.268878" y="12.161978" width="18.677211" height="103.130685"/>
  <rect id="svg_22" fill="#000000" stroke="#000000" stroke-width="5" x="265.743827" y="12.161978" width="18.677211" height="103.130685"/>
  <rect id="svg_23" fill="#000000" stroke="#000000" stroke-width="5" x="355.881673" y="10.537873" width="18.677211" height="103.130685"/>
  <rect id="svg_24" fill="#000000" stroke="#000000" stroke-width="5" x="401.356623" y="10.537873" width="18.677211" height="103.130685"/>
  <rect id="svg_25" fill="#000000" stroke="#000000" stroke-width="5" x="490.682416" y="12.974031" width="18.677211" height="103.130685"/>
  <rect id="svg_26" fill="#000000" stroke="#000000" stroke-width="5" x="534.53326" y="13.786083" width="18.677211" height="103.130685"/>
  <rect id="svg_27" fill="#000000" stroke="#000000" stroke-width="5" x="579.196157" y="12.974031" width="18.677211" height="103.130685"/>
  <title>Layer 1</title>
 </g>
</svg>